<svg width="12" height="10" viewBox="0 0 12 10" fill="none" xmlns="http://www.w3.org/2000/svg">
<path d="M10.1786 6.51786C10.1786 6.94193 9.81081 7.28571 9.35715 7.28571C8.90349 7.28571 8.53572 6.94193 8.53572 6.51786C8.53572 6.09378 8.90349 5.75 9.35715 5.75C9.81081 5.75 10.1786 6.09378 10.1786 6.51786Z" fill="#684530"/>
<path d="M2.5 0.999998L4.42857 1.375L4.14286 2.10714V3.55357L2.89286 4.42857L1.25 3.26786L0.517859 2.55357L2.38419e-06 1.76786V0.999998L0.517859 0.42857H1.25L1.92857 0.714284L2.5 0.999998Z" fill="#684530"/>
<path d="M8.96429 4.53571V4.82143L8.75 6.58928H9.16072L9.60714 7.19643L9.94643 7.76786L10.1607 8.55357V9.08928L9.94643 9.375H9.375L9.16072 8.89286H8.75L8.08929 9.375L7.46429 9.08928L7.17857 9.375L6.23214 10H5.32143L4.58929 9.375L3.92857 8.55357L3.32143 9.375L2.625 9.55357L2.03572 9.375V8.89286L2.25 8.35714L2.44643 7.76786V7.35714L2.25 6.94643V6.58928L2.03572 6.16071L1.875 5.89286V5.39286V4.82143V4.53571L1.80357 4.28571L1.875 3.875L2.03572 3.69643H2.25H2.625L3.01786 3.46428L3.32143 3.21428L3.51786 2.83928L3.69643 2.625L5.71429 1.80357L8.55357 3.46428L8.75 3.69643L8.96429 3.875V4.53571Z" fill="#684530"/>
<path d="M8.64286 4.30357C8.64286 4.30357 8.4403 3.85714 8.39286 3.96428C8.36694 4.02283 7.92858 4.83929 7.75001 5.03571C7.57143 5.23214 7.16072 5.58929 6.73215 5.58928C6.30358 5.58928 5.71429 5.39286 5.71429 5.39286C5.60715 5.33333 5.35715 5.125 5.35715 5.125L5.21429 5.03571L5.12501 4.92857L4.98215 4.69643L4.83929 4.41071L4.69643 4.125L4.57143 3.96428L4.42858 3.78571H4.33929L4.12501 3.96428L3.94643 4.03571L3.76786 4.125L3.62501 4.21428H3.44644H3.26786L3.01786 4.125L2.78572 4.69643L2.62501 5.21428L2.55358 5.78571L2.53572 6.14286L2.62501 6.57143L2.82144 6.94643L3.01786 7.33928L3.26786 7.625L3.62501 7.89286L4.01786 8.08928L4.42858 8.28571L4.69643 8.33928L5.12501 8.42857L6.05358 8.51786L6.73215 8.42857L7.26786 8.28571L7.59822 8.14286L7.92858 8L8.39286 7.625L8.64286 7.08928L8.75001 6.69643L8.80358 6.23214L8.92858 5.71429V5.03571V4.66071L8.64286 4.30357Z" fill="#C6D0B5"/>
<path d="M9.07143 0.892859L8.67857 1.23214L7.42857 2V3.44643L8.67857 4.32143L10.3214 3.16072L11.0536 2.44643L11.5714 1.66072V0.892859L11.0536 0.32143H10.3214L9.64286 0.607145L9.07143 0.892859Z" fill="#684530"/>
<path d="M8.51786 1.875L8.35715 1.71429V1.625L8.51786 1.55357L8.57143 1.35714L8.64286 1.25V1.16071V0.928571V0.696429V0.535714V0.392857L8.57143 0.142857L8.51786 0.0714286L8.42858 0L8.14286 0.0714286L7.94643 0.107143L7.67858 0.0714286H7.28572H7.10715L6.76786 0.125L6.66072 0.196429L6.51786 0.267857L6.44643 0.535714L6.14286 0.267857L5.80358 0.125L5.48215 0.0714286H5.10715H4.82143H4.46429L4.26786 0H4.07143H3.76786L3.60715 0.267857V0.535714V0.857143V1.16071L3.69643 1.44643L3.76786 1.55357L3.95536 1.69643L3.83929 1.76786L3.60715 1.875H3.46429L3.375 2.07143L3.35715 2.375L3.46429 2.64286L3.60715 2.96429L3.76786 3.10714L4.07143 3.28571L4.33929 3.46429L4.60715 3.55357L5.03572 3.625H5.33929L5.51786 3.70536L5.55358 3.94643L5.76786 4.28571L6.03572 4.53571L6.25 4.71429L6.51786 4.83929H6.76786H6.98215L7.16072 4.60714L7.41072 4.28571L7.48215 4.05357L7.53572 3.71429V3.46429V3.28571L7.75 3.375H8.14286H8.51786L8.80358 3.28571L9.03572 3.17857L9.25 2.96429L9.35715 2.80357V2.64286L9.25 2.46429L9.03572 2.26786L8.80358 2.125L8.64286 2.01786L8.51786 1.875Z" fill="#D2C03A"/>
<path d="M6.30357 7.375C6.01612 7.23987 5.99285 7.13056 6.05357 6.91071L6.60714 7.03571C6.58515 7.22266 6.53822 7.30797 6.30357 7.375Z" fill="#684530"/>
<path d="M6.30357 7.375C6.01612 7.23987 5.99285 7.13056 6.05357 6.91071L6.60714 7.03571C6.58515 7.22266 6.53822 7.30797 6.30357 7.375Z" fill="#684530"/>
<path d="M5 6.14385C5 6.89393 4.66421 7.42857 4.25 7.42857C3.83579 7.42857 3.5 6.89393 3.5 6.14385C3.5 5.39377 3.83579 4.78571 4.25 4.78571C4.66421 4.78571 5 5.39377 5 6.14385Z" fill="black"/>
<path d="M8.57144 6.13988C8.57144 6.80887 8.33958 7.28571 8.05358 7.28571C7.76757 7.28571 7.53572 6.80887 7.53572 6.13988C7.53572 5.47089 7.76757 4.92857 8.05358 4.92857C8.33958 4.92857 8.57144 5.47089 8.57144 6.13988Z" fill="black"/>
</svg>
