<svg width="324" height="282" viewBox="0 0 324 282" fill="none" xmlns="http://www.w3.org/2000/svg">
<path d="M284.5 183.5C284.5 195.067 274.459 204.5 262 204.5C249.541 204.5 239.5 195.067 239.5 183.5C239.5 171.933 249.541 162.5 262 162.5C274.459 162.5 284.5 171.933 284.5 183.5Z" fill="#684530" stroke="black"/>
<path d="M70 29L124 39.5L116 60V100.5L81 125L35 92.5L14.5 72.5L0 50.5V29L14.5 13H35L54 21L70 29Z" fill="#684530"/>
<path d="M251 128V136L245 185.5H256.5L269 202.5L278.5 218.5L284.5 240.5V255.5L278.5 263.5H262.5L256.5 250H245L226.5 263.5L209 255.5L201 263.5L174.5 281H149L128.5 263.5L110 240.5L93 263.5L73.5 268.5L57 263.5V250L63 235L68.5 218.5V207L63 195.5V185.5L57 173.5L52.5 166V152V136V128L50.5 121L52.5 109.5L57 104.5H63H73.5L84.5 98L93 91L98.5 80.5L103.5 74.5L160 51.5L239.5 98L245 104.5L251 109.5V128Z" fill="#684530"/>
<path d="M251 136L245 128L239.5 117L234.5 109.5L226.5 128L214 147L201 157.5H179.5L160 152L141.5 136L134.5 117L128.5 104.5L118 109.5L103.5 117H84.5L80 136L73.5 152V166V185.5L80 202.5L93 218.5L110 226.5L124 235H149L179.5 240.5L201 235L234.5 218.5L245 195.5V185.5M251 136V128V109.5L245 104.5L239.5 98L160 51.5L103.5 74.5L98.5 80.5L93 91L84.5 98L73.5 104.5H63H57L52.5 109.5L50.5 121L52.5 128V136V152V166L57 173.5L63 185.5V195.5L68.5 207V218.5L63 235L57 250V263.5L73.5 268.5L93 263.5L110 240.5L128.5 263.5L149 281H174.5L201 263.5L209 255.5L226.5 263.5L245 250H256.5L262.5 263.5H278.5L284.5 255.5V240.5L278.5 218.5L269 202.5L256.5 185.5H245M251 136L245 185.5" stroke="#684530"/>
<path d="M242 121.5C242 121.5 236.328 109 235 112C234.274 113.639 222 136.5 217 142C212 147.5 200.5 157.5 188.5 157.5C176.5 157.5 160 152 160 152C157 150.333 150 144.5 150 144.5L146 142L143.5 139L139.5 132.5L135.5 124.5L131.5 116.5L128 112L124 107H121.5L115.5 112L110.5 114L105.5 116.5L101.5 119H96.5H91.5L84.5 116.5L78 132.5L73.5 147L71.5 163L71 173L73.5 185L79 195.5L84.5 206.5L91.5 214.5L101.5 222L112.5 227.5L124 233L131.5 234.5L143.5 237L169.5 239.5L188.5 237L203.5 233L212.75 229L222 225L235 214.5L242 199.5L245 188.5L246.5 175.5L250 161V142V131.5L242 121.5Z" fill="#C6D0B5" stroke="#C6D0B5"/>
<path d="M254 26L243 35.5L208 57V97.5L243 122L289 89.5L309.5 69.5L324 47.5V26L309.5 10H289L270 18L254 26Z" fill="#684530"/>
<path d="M238.5 53.5L234 49V46.5L238.5 44.5L240 39L242 36V33.5V27V20.5V16V12L240 5L238.5 3L236 1L228 3L222.5 4L215 3H204H199L189.5 4.5L186.5 6.5L182.5 8.5L180.5 16L172 8.5L162.5 4.5L153.5 3H143H135H125L119.5 1H114H105.5L101 8.5V16V25V33.5L103.5 41.5L105.5 44.5L110.75 48.5L107.5 50.5L101 53.5H97L94.5 59L94 67.5L97 75L101 84L105.5 88L114 93L121.5 98L129 100.5L141 102.5H149.5L154.5 104.75L155.5 111.5L161.5 121L169 128L175 133L182.5 136.5H189.5H195.5L200.5 130L207.5 121L209.5 114.5L211 105V98V93L217 95.5H228H238.5L246.5 93L253 90L259 84L262 79.5V75L259 70L253 64.5L246.5 60.5L242 57.5L238.5 53.5Z" fill="#D2C03A"/>
<path d="M199 41.5L204 39H211H219L224 41.5L228 44.5L234 49M234 49L238.5 53.5L242 57.5L246.5 60.5L253 64.5L259 70L262 75V79.5L259 84L253 90L246.5 93L238.5 95.5H228H217L211 93M234 49V46.5L238.5 44.5L240 39L242 36V33.5V27V20.5V16V12L240 5L238.5 3L236 1L228 3L222.5 4L215 3H204H199L189.5 4.5L186.5 6.5L182.5 8.5L180.5 16L172 8.5L162.5 4.5L153.5 3C150.833 3 145 3 143 3C140.5 3 136.5 3 135 3C133.8 3 127.833 3 125 3L119.5 1H114H105.5L101 8.5V16V25V33.5L103.5 41.5L105.5 44.5L110.75 48.5M211 93L207.5 86L204 79.5L200.5 73.5L195.5 70M211 93V98V105L209.5 114.5L207.5 121L200.5 130L195.5 136.5H189.5H182.5L175 133L169 128L161.5 121L155.5 111.5L154.5 104.75M161.5 75L155.5 84L153.5 90V98L154.5 104.75M154.5 104.75L149.5 102.5H141L129 100.5L121.5 98L114 93L105.5 88L101 84L97 75L94 67.5L94.5 59L97 53.5H101L107.5 50.5L110.75 48.5M166.5 41.5L159 39L153.5 36L143 33.5L132.5 36L125 39L119.5 41.5L114 46.5L110.75 48.5" stroke="black"/>
<path d="M176.5 207.5C168.451 203.716 167.8 200.656 169.5 194.5L185 198C184.384 203.235 183.07 205.623 176.5 207.5Z" fill="#684530"/>
<path d="M176.5 207.5C168.451 203.716 167.8 200.656 169.5 194.5L185 198C184.384 203.235 183.07 205.623 176.5 207.5Z" fill="#684530"/>
<path d="M140 173.028C140 194.03 130.598 209 119 209C107.402 209 98 194.03 98 173.028C98 152.026 107.402 135 119 135C130.598 135 140 152.026 140 173.028Z" fill="black"/>
<path d="M240 172.917C240 191.648 233.508 205 225.5 205C217.492 205 211 191.648 211 172.917C211 154.185 217.492 139 225.5 139C233.508 139 240 154.185 240 172.917Z" fill="black"/>
<path d="M154 219.5C154 219.5 165 227.417 176 227.417C187 227.417 192.5 225 192.5 225" stroke="black" stroke-width="5"/>
</svg>
